<?xml version="1.0" encoding="UTF-8"?>
<svg xmlns="http://www.w3.org/2000/svg" xmlns:xlink="http://www.w3.org/1999/xlink" width="1280" height="720" viewBox="0 0 1280 720">
<defs>
<g>
<g id="glyph-0-0">
<path d="M 8.378906 -4.816406 L 1.261719 -4.816406 L 1.261719 -5.699219 L 8.378906 -5.699219 L 8.378906 -4.816406 M 8.378906 -2.195312 L 1.261719 -2.195312 L 1.261719 -3.074219 L 8.378906 -3.074219 Z "/>
</g>
<g id="glyph-0-1">
</g>
<g id="glyph-0-2">
<path d="M 14.175781 -10.007812 L 14.070312 -9.542969 C 13.933594 -9.539062 13.757812 -9.515625 13.546875 -9.480469 C 13.335938 -9.441406 13.179688 -9.40625 13.074219 -9.375 C 12.890625 -9.3125 12.761719 -9.214844 12.679688 -9.082031 C 12.601562 -8.953125 12.542969 -8.808594 12.503906 -8.65625 L 10.808594 -1.375 C 10.796875 -1.335938 10.792969 -1.296875 10.785156 -1.25 C 10.78125 -1.203125 10.78125 -1.164062 10.78125 -1.136719 C 10.78125 -1.035156 10.800781 -0.949219 10.84375 -0.871094 C 10.886719 -0.792969 10.957031 -0.722656 11.054688 -0.664062 C 11.121094 -0.621094 11.261719 -0.578125 11.472656 -0.535156 C 11.6875 -0.492188 11.855469 -0.46875 11.976562 -0.464844 L 11.867188 0 L 7.453125 0 L 7.566406 -0.464844 C 7.738281 -0.476562 7.949219 -0.492188 8.203125 -0.519531 C 8.457031 -0.542969 8.636719 -0.582031 8.738281 -0.632812 C 8.902344 -0.722656 9.035156 -0.828125 9.136719 -0.945312 C 9.238281 -1.0625 9.304688 -1.207031 9.335938 -1.375 L 11.074219 -8.828125 L 10.992188 -8.828125 L 5.539062 -0.164062 L 5.203125 -0.164062 L 3.949219 -9.007812 L 3.878906 -9.007812 L 2.457031 -2.855469 C 2.398438 -2.605469 2.351562 -2.363281 2.316406 -2.128906 C 2.277344 -1.894531 2.257812 -1.703125 2.257812 -1.558594 C 2.257812 -1.402344 2.273438 -1.269531 2.308594 -1.160156 C 2.339844 -1.050781 2.386719 -0.960938 2.449219 -0.886719 C 2.53125 -0.789062 2.710938 -0.699219 2.984375 -0.621094 C 3.257812 -0.539062 3.472656 -0.488281 3.625 -0.464844 L 3.511719 0 L -0.535156 0 L -0.421875 -0.464844 C -0.203125 -0.488281 0.0195312 -0.523438 0.238281 -0.5625 C 0.460938 -0.605469 0.664062 -0.6875 0.851562 -0.804688 C 1.042969 -0.929688 1.203125 -1.136719 1.332031 -1.425781 C 1.464844 -1.710938 1.597656 -2.164062 1.734375 -2.777344 L 2.9375 -7.96875 C 2.960938 -8.078125 2.976562 -8.175781 2.988281 -8.261719 C 3 -8.347656 3.007812 -8.433594 3.007812 -8.519531 C 3.007812 -8.671875 2.988281 -8.796875 2.949219 -8.898438 C 2.914062 -9 2.863281 -9.082031 2.800781 -9.15625 C 2.679688 -9.289062 2.515625 -9.386719 2.304688 -9.445312 C 2.097656 -9.5 1.90625 -9.53125 1.730469 -9.542969 L 1.835938 -10.007812 L 5.21875 -10.007812 L 6.308594 -2.480469 L 10.195312 -8.78125 C 10.34375 -9.019531 10.476562 -9.265625 10.597656 -9.519531 C 10.722656 -9.773438 10.792969 -9.9375 10.808594 -10.007812 Z "/>
</g>
<g id="glyph-0-3">
<path d="M 4.902344 -0.933594 L 4.851562 -0.933594 C 4.75 -0.847656 4.625 -0.738281 4.484375 -0.609375 C 4.339844 -0.480469 4.171875 -0.359375 3.980469 -0.238281 C 3.796875 -0.121094 3.597656 -0.0195312 3.382812 0.0664062 C 3.164062 0.152344 2.929688 0.199219 2.675781 0.199219 C 1.996094 0.199219 1.460938 -0.046875 1.074219 -0.535156 C 0.6875 -1.027344 0.492188 -1.695312 0.492188 -2.542969 C 0.492188 -3.125 0.601562 -3.691406 0.816406 -4.242188 C 1.035156 -4.792969 1.332031 -5.289062 1.714844 -5.726562 C 2.074219 -6.144531 2.503906 -6.480469 3.003906 -6.738281 C 3.5 -6.996094 4.011719 -7.125 4.539062 -7.125 C 4.871094 -7.125 5.191406 -7.078125 5.492188 -6.988281 C 5.796875 -6.898438 6.035156 -6.796875 6.210938 -6.6875 L 7.503906 -7.015625 L 7.589844 -6.910156 L 6.515625 -2.359375 C 6.476562 -2.210938 6.4375 -2.035156 6.398438 -1.824219 C 6.359375 -1.613281 6.339844 -1.460938 6.339844 -1.363281 C 6.339844 -1.09375 6.394531 -0.914062 6.507812 -0.816406 C 6.621094 -0.722656 6.8125 -0.675781 7.078125 -0.675781 C 7.167969 -0.675781 7.296875 -0.691406 7.460938 -0.71875 C 7.625 -0.746094 7.753906 -0.777344 7.84375 -0.8125 L 7.738281 -0.359375 C 7.3125 -0.191406 6.996094 -0.0664062 6.789062 0.0078125 C 6.582031 0.0820312 6.332031 0.121094 6.035156 0.121094 C 5.695312 0.121094 5.425781 0.0195312 5.226562 -0.175781 C 5.03125 -0.375 4.921875 -0.625 4.902344 -0.933594 M 5.917969 -5.394531 C 5.917969 -5.550781 5.902344 -5.699219 5.871094 -5.839844 C 5.835938 -5.980469 5.769531 -6.113281 5.664062 -6.234375 C 5.570312 -6.351562 5.441406 -6.445312 5.277344 -6.515625 C 5.113281 -6.585938 4.90625 -6.621094 4.65625 -6.621094 C 4.3125 -6.621094 3.980469 -6.507812 3.652344 -6.285156 C 3.328125 -6.058594 3.039062 -5.753906 2.777344 -5.371094 C 2.535156 -5.015625 2.335938 -4.582031 2.179688 -4.074219 C 2.023438 -3.566406 1.945312 -3.050781 1.945312 -2.527344 C 1.945312 -2.238281 1.964844 -1.984375 1.996094 -1.765625 C 2.027344 -1.542969 2.09375 -1.339844 2.1875 -1.15625 C 2.273438 -0.976562 2.402344 -0.839844 2.574219 -0.742188 C 2.742188 -0.640625 2.957031 -0.59375 3.214844 -0.59375 C 3.476562 -0.59375 3.753906 -0.667969 4.039062 -0.816406 C 4.328125 -0.964844 4.65625 -1.222656 5.015625 -1.59375 Z "/>
</g>
<g id="glyph-0-4">
<path d="M 12.285156 -0.796875 L 12.179688 -0.34375 C 11.746094 -0.171875 11.398438 -0.0507812 11.140625 0.0195312 C 10.878906 0.0859375 10.65625 0.121094 10.472656 0.121094 C 10.097656 0.121094 9.8125 0.0234375 9.625 -0.171875 C 9.4375 -0.367188 9.339844 -0.609375 9.339844 -0.898438 C 9.339844 -1 9.351562 -1.113281 9.371094 -1.238281 C 9.390625 -1.363281 9.417969 -1.511719 9.460938 -1.679688 L 10.160156 -4.3125 C 10.210938 -4.515625 10.253906 -4.699219 10.28125 -4.863281 C 10.3125 -5.03125 10.328125 -5.160156 10.328125 -5.261719 C 10.328125 -5.574219 10.261719 -5.824219 10.125 -6.007812 C 9.988281 -6.191406 9.773438 -6.285156 9.480469 -6.285156 C 9.167969 -6.285156 8.859375 -6.210938 8.558594 -6.0625 C 8.257812 -5.914062 7.914062 -5.636719 7.535156 -5.230469 L 6.300781 0 L 4.988281 0 L 6.101562 -4.714844 C 6.125 -4.820312 6.144531 -4.929688 6.167969 -5.042969 C 6.1875 -5.160156 6.199219 -5.246094 6.199219 -5.300781 C 6.199219 -5.609375 6.125 -5.847656 5.972656 -6.023438 C 5.820312 -6.195312 5.597656 -6.285156 5.300781 -6.285156 C 5.035156 -6.285156 4.742188 -6.21875 4.417969 -6.082031 C 4.097656 -5.949219 3.722656 -5.648438 3.296875 -5.183594 L 2.09375 0 L 0.777344 0 L 1.832031 -4.574219 C 1.871094 -4.738281 1.90625 -4.917969 1.941406 -5.105469 C 1.976562 -5.292969 1.996094 -5.453125 1.996094 -5.585938 C 1.996094 -5.859375 1.949219 -6.039062 1.863281 -6.125 C 1.773438 -6.210938 1.597656 -6.253906 1.335938 -6.253906 C 1.234375 -6.253906 1.097656 -6.234375 0.9375 -6.195312 C 0.773438 -6.15625 0.648438 -6.125 0.558594 -6.101562 L 0.664062 -6.554688 C 1.03125 -6.722656 1.359375 -6.84375 1.640625 -6.925781 C 1.925781 -7.003906 2.167969 -7.046875 2.371094 -7.046875 C 2.75 -7.046875 3.019531 -6.941406 3.175781 -6.738281 C 3.335938 -6.535156 3.417969 -6.253906 3.429688 -5.902344 L 3.472656 -5.902344 C 4.023438 -6.339844 4.480469 -6.652344 4.835938 -6.839844 C 5.195312 -7.027344 5.621094 -7.125 6.113281 -7.125 C 6.53125 -7.125 6.871094 -7.003906 7.128906 -6.757812 C 7.390625 -6.515625 7.539062 -6.210938 7.570312 -5.84375 L 7.597656 -5.84375 C 8.097656 -6.265625 8.546875 -6.582031 8.9375 -6.796875 C 9.328125 -7.015625 9.78125 -7.125 10.300781 -7.125 C 10.753906 -7.125 11.097656 -6.992188 11.339844 -6.730469 C 11.578125 -6.46875 11.699219 -6.128906 11.699219 -5.703125 C 11.699219 -5.621094 11.6875 -5.46875 11.660156 -5.253906 C 11.636719 -5.035156 11.59375 -4.820312 11.539062 -4.609375 L 10.945312 -2.34375 C 10.902344 -2.191406 10.863281 -2.019531 10.824219 -1.824219 C 10.785156 -1.628906 10.765625 -1.476562 10.765625 -1.367188 C 10.765625 -1.101562 10.824219 -0.917969 10.9375 -0.820312 C 11.050781 -0.726562 11.242188 -0.675781 11.507812 -0.675781 C 11.597656 -0.675781 11.726562 -0.6875 11.898438 -0.710938 C 12.066406 -0.734375 12.195312 -0.765625 12.285156 -0.796875 Z "/>
</g>
<g id="glyph-0-5">
<path d="M 4.902344 -0.933594 L 4.855469 -0.933594 C 4.75 -0.847656 4.628906 -0.738281 4.484375 -0.609375 C 4.339844 -0.480469 4.171875 -0.359375 3.980469 -0.238281 C 3.796875 -0.121094 3.597656 -0.0195312 3.382812 0.0664062 C 3.164062 0.152344 2.929688 0.199219 2.675781 0.199219 C 1.996094 0.199219 1.460938 -0.046875 1.074219 -0.535156 C 0.6875 -1.027344 0.492188 -1.695312 0.492188 -2.542969 C 0.492188 -3.125 0.601562 -3.691406 0.816406 -4.242188 C 1.035156 -4.792969 1.332031 -5.289062 1.714844 -5.726562 C 2.074219 -6.144531 2.503906 -6.480469 3.003906 -6.738281 C 3.5 -6.996094 4.011719 -7.125 4.539062 -7.125 C 4.871094 -7.125 5.191406 -7.078125 5.496094 -6.988281 C 5.796875 -6.898438 6.035156 -6.796875 6.210938 -6.6875 L 7.503906 -7.015625 L 7.589844 -6.910156 L 6.515625 -2.359375 C 6.476562 -2.210938 6.4375 -2.035156 6.398438 -1.824219 C 6.359375 -1.613281 6.339844 -1.460938 6.339844 -1.363281 C 6.339844 -1.09375 6.394531 -0.914062 6.507812 -0.816406 C 6.621094 -0.722656 6.8125 -0.675781 7.078125 -0.675781 C 7.167969 -0.675781 7.296875 -0.691406 7.460938 -0.71875 C 7.625 -0.746094 7.753906 -0.777344 7.84375 -0.8125 L 7.738281 -0.359375 C 7.3125 -0.191406 6.996094 -0.0664062 6.789062 0.0078125 C 6.582031 0.0820312 6.332031 0.121094 6.035156 0.121094 C 5.695312 0.121094 5.425781 0.0195312 5.226562 -0.175781 C 5.03125 -0.375 4.921875 -0.625 4.902344 -0.933594 M 5.917969 -5.394531 C 5.917969 -5.550781 5.902344 -5.699219 5.871094 -5.839844 C 5.835938 -5.980469 5.769531 -6.113281 5.664062 -6.234375 C 5.570312 -6.351562 5.441406 -6.445312 5.277344 -6.515625 C 5.113281 -6.585938 4.90625 -6.621094 4.65625 -6.621094 C 4.3125 -6.621094 3.980469 -6.507812 3.652344 -6.285156 C 3.328125 -6.058594 3.039062 -5.753906 2.777344 -5.371094 C 2.535156 -5.015625 2.335938 -4.582031 2.179688 -4.074219 C 2.023438 -3.566406 1.945312 -3.050781 1.945312 -2.527344 C 1.945312 -2.238281 1.964844 -1.984375 1.996094 -1.765625 C 2.027344 -1.542969 2.09375 -1.339844 2.1875 -1.15625 C 2.273438 -0.976562 2.402344 -0.839844 2.574219 -0.742188 C 2.742188 -0.640625 2.957031 -0.59375 3.214844 -0.59375 C 3.476562 -0.59375 3.753906 -0.667969 4.039062 -0.816406 C 4.328125 -0.964844 4.65625 -1.222656 5.015625 -1.59375 L 5.917969 -5.394531 M 6.523438 -10.339844 C 6.523438 -10.152344 6.480469 -10 6.390625 -9.882812 C 6.300781 -9.769531 6.164062 -9.640625 5.980469 -9.5 C 5.757812 -9.332031 5.472656 -9.121094 5.125 -8.871094 C 4.773438 -8.625 4.300781 -8.273438 3.703125 -7.828125 L 3.449219 -8.054688 C 3.914062 -8.675781 4.238281 -9.113281 4.417969 -9.375 C 4.597656 -9.632812 4.792969 -9.917969 5 -10.226562 C 5.164062 -10.480469 5.324219 -10.648438 5.476562 -10.726562 C 5.628906 -10.808594 5.796875 -10.847656 5.972656 -10.847656 C 6.128906 -10.847656 6.257812 -10.796875 6.363281 -10.691406 C 6.472656 -10.589844 6.523438 -10.472656 6.523438 -10.339844 Z "/>
</g>
</g>
</defs>
<g fill="rgb(100%, 83.921569%, 87.843137%)" fill-opacity="1">
<use xlink:href="#glyph-0-0" x="30" y="33.244141"/>
<use xlink:href="#glyph-0-1" x="39" y="33.244141"/>
<use xlink:href="#glyph-0-2" x="42" y="33.244141"/>
<use xlink:href="#glyph-0-3" x="55" y="33.244141"/>
<use xlink:href="#glyph-0-4" x="63" y="33.244141"/>
<use xlink:href="#glyph-0-5" x="76" y="33.244141"/>
</g>
</svg>
